<svg xmlns="http://www.w3.org/2000/svg" width="58" height="58" viewBox="0 0 58 58" fill="none">
  <path d="M25.7752 48.72C21.9472 52.548 13.7808 51.5968 10.092 50.924C8.932 50.7152 8.0272 49.8104 7.8184 48.6504C7.1456 44.9616 6.1944 36.7952 10.0224 32.9672C15.0568 27.9328 22.6664 27.376 27.0048 31.7376C31.3432 36.0992 30.8096 43.6856 25.7752 48.72Z" fill="#F0D5A8"/>
  <path d="M12.8992 30.74C15.66 37.6304 21.0888 43.1056 27.956 45.936C30.856 41.18 30.624 35.3336 27.0048 31.7376C23.432 28.1416 17.632 27.8864 12.8992 30.74Z" fill="#DEBB7E"/>
  <path d="M16.5184 52.2928C14.6624 52.2928 12.4816 52.1072 9.9528 51.6432C8.5144 51.388 7.3544 50.228 7.0992 48.7896C5.22 38.5584 7.7952 34.1736 9.512 32.4568C12.064 29.9048 15.3352 28.3504 18.7224 28.1184C22.1328 27.8632 25.2648 28.9768 27.5152 31.2272C29.7656 33.4776 30.8792 36.6096 30.624 40.02C30.3688 43.4072 28.8376 46.6784 26.2856 49.2304C25.0096 50.5064 22.2024 52.2928 16.5184 52.2928ZM19.6504 29.5104C19.372 29.5104 19.0936 29.5104 18.8152 29.5336C15.776 29.7424 12.8296 31.1576 10.5328 33.4544C6.9136 37.0736 7.9344 45.1936 8.5376 48.488C8.7 49.3464 9.3728 50.0192 10.2312 50.1816C13.5488 50.7848 21.6456 51.8056 25.288 48.1864C27.608 45.8664 29 42.9432 29.2088 39.904C29.4176 36.9112 28.4664 34.1736 26.5176 32.2248C24.7312 30.4616 22.3184 29.5104 19.6504 29.5104Z" fill="#45413C"/>
  <path d="M17.9336 48.2328C17.6088 48.2328 17.3072 48.0009 17.2376 47.6761C17.1448 47.2817 17.4 46.8873 17.7944 46.8177C21.808 45.9129 24.8936 42.7113 25.6824 38.6513C25.752 38.2569 26.1464 38.0017 26.5408 38.0713C26.9352 38.1409 27.1904 38.5353 27.1208 38.9297C26.2392 43.5233 22.7128 47.1888 18.1424 48.2328C18.0496 48.2328 18.0032 48.2328 17.9336 48.2328ZM18.9312 43.1057C18.7224 43.1057 18.5136 43.0129 18.3512 42.8273C18.096 42.5025 18.1656 42.0616 18.4672 41.8064C20.3232 40.368 21.8312 38.4889 22.8752 36.3777C23.0608 36.0297 23.4784 35.8672 23.8496 36.0528C24.1976 36.2384 24.36 36.6561 24.1744 37.0273C23.0376 39.3241 21.3904 41.3657 19.372 42.9433C19.256 43.0593 19.0936 43.1057 18.9312 43.1057ZM11.2056 41.5048C11.1592 41.5048 11.0896 41.5049 11.0432 41.4817C10.6488 41.3889 10.4168 40.9945 10.4864 40.6233C11.5304 36.0297 15.196 32.5032 19.836 31.6448C20.2304 31.5752 20.6016 31.8304 20.6712 32.2248C20.7408 32.6192 20.4856 32.9904 20.0912 33.06C16.0312 33.8256 12.8064 36.9113 11.9016 40.9481C11.8552 41.2729 11.5536 41.5048 11.2056 41.5048ZM15.7296 39.8808C15.5672 39.8808 15.4048 39.8344 15.2888 39.7184C14.964 39.4632 14.9176 39.0225 15.1728 38.6977C16.7736 36.6561 18.8384 34.9856 21.1816 33.8488C21.5528 33.6632 21.9704 33.8257 22.156 34.1737C22.3416 34.5449 22.1792 34.9624 21.8312 35.148C19.6968 36.192 17.7944 37.7233 16.3328 39.5793C16.1472 39.7881 15.9384 39.8808 15.7296 39.8808Z" fill="#B89558"/>
  <path d="M55.4712 13.5719C56.7472 12.2959 55.6104 9.09433 52.9192 6.42633C50.228 3.75833 47.0496 2.59833 45.7736 3.87433C44.2888 5.35913 30.6472 13.7111 18.3512 28.9071C20.2304 34.3359 24.5224 38.6279 29.9512 40.5071C39.3704 32.4103 47.908 23.3855 55.4712 13.5719Z" fill="#BD704A"/>
  <path d="M29.9512 41.2264C29.8816 41.2264 29.7888 41.2032 29.7192 41.18C24.1048 39.2312 19.604 34.7304 17.6784 29.1392C17.5856 28.9072 17.632 28.652 17.7944 28.4432C27.6544 16.2632 38.4656 8.39836 43.0592 5.03436C44.1496 4.24556 45.008 3.61916 45.2632 3.36396C46.8408 1.78636 50.3672 2.87676 53.4296 5.91596C55.448 7.93436 56.724 10.3008 56.724 12.1104C56.724 12.8992 56.492 13.572 56.028 14.0592C48.4184 23.896 39.8112 32.9904 30.4152 41.064C30.2992 41.18 30.1136 41.2264 29.9512 41.2264ZM19.1632 29.0464C20.9728 33.9184 24.9168 37.8624 29.7888 39.672C38.9992 31.7376 47.4208 22.8056 54.8912 13.1312C54.9144 13.108 54.9376 13.0848 54.9608 13.0616C55.1696 12.8528 55.2624 12.528 55.2624 12.1104C55.2624 10.6952 54.1256 8.65356 52.4088 6.93676C49.8336 4.38476 47.1192 3.54956 46.284 4.38476C45.936 4.73276 45.1704 5.28956 43.9176 6.21756C39.3936 9.51196 28.8376 17.1912 19.1632 29.0464Z" fill="#45413C"/>
  <path d="M55.4712 13.572C56.7472 12.296 55.6104 9.09445 52.9192 6.42645C50.228 3.75845 47.0496 2.59845 45.7736 3.87445C44.2888 5.35925 30.6472 13.7112 18.3512 28.9072C20.2304 34.336 24.5224 38.6281 29.9512 40.5073C39.3704 32.4104 47.908 23.3856 55.4712 13.572Z" fill="#8CA4B8"/>
  <path d="M21.0192 50.7384C21.0192 50.576 20.9728 50.4136 20.8568 50.2744C20.6944 50.0888 20.4392 49.996 20.184 49.996C19.5112 50.0888 18.8384 50.2744 18.212 50.5296C17.1448 50.808 16.0312 50.3672 15.4512 49.4624C15.312 48.9984 15.2424 48.5112 15.2888 48.024C15.2888 47.444 15.1728 46.864 14.964 46.3304C14.8712 46.0752 14.732 45.8432 14.5464 45.6576C14.1752 45.4024 13.7344 45.2632 13.2936 45.2632C12.8528 45.2168 12.412 45.2168 11.9712 45.2864C11.4608 45.4952 10.904 45.6344 10.3472 45.6576C9.53519 45.5648 9.07119 44.7296 8.81599 43.964C8.53759 43.152 8.39839 42.2936 8.35199 41.412C8.37519 40.9248 8.30559 40.4376 8.18959 39.9736C8.05039 39.4864 7.65599 39.1384 7.14559 39.0688C6.21759 39.0224 5.77679 40.1592 5.49839 40.8552C4.82559 42.5256 4.22239 44.196 3.64239 45.9128C2.99279 47.444 2.45919 48.9984 2.04159 50.5992C1.92559 51.156 1.97199 51.736 2.20399 52.2464C2.87679 53.6384 4.68639 53.7776 6.03199 53.9168C8.72319 54.3808 11.4608 54.6128 14.1984 54.636C16.4488 54.4968 21.0888 53.8008 21.0192 50.7384Z" fill="#6DD627"/>
  <path d="M20.8568 50.2976C20.6944 50.112 20.4392 50.0192 20.184 50.0192C19.5112 50.112 18.8384 50.2976 18.212 50.5528C17.1448 50.8312 16.0312 50.3904 15.4512 49.4856C15.312 49.0216 15.2424 48.5344 15.2888 48.0472C15.2888 47.4672 15.1728 46.8872 14.964 46.3536C14.8712 46.0984 14.732 45.8664 14.5464 45.6808C14.1752 45.4256 13.7344 45.2864 13.2936 45.2864C12.8528 45.24 12.412 45.24 11.9712 45.3096C11.4608 45.5184 10.904 45.6576 10.3472 45.6808C9.53521 45.588 9.07121 44.7528 8.81601 43.9872C8.53761 43.1752 8.39841 42.3168 8.35201 41.4352C8.37521 40.948 8.30561 40.4608 8.18961 39.9968C8.05041 39.5096 7.65601 39.1616 7.14561 39.092C6.21761 39.0456 5.77681 40.1824 5.49841 40.8784C5.35921 41.2496 5.22001 41.6208 5.08081 41.992C5.31281 42.1776 5.49841 42.4096 5.59121 42.688C5.70721 43.152 5.77681 43.6392 5.75361 44.1264C5.80001 44.9848 5.93921 45.8432 6.21761 46.6784C6.47281 47.444 6.96001 48.2792 7.74881 48.372C8.30561 48.3488 8.86241 48.2096 9.37281 48.0008C9.81361 47.9312 10.2544 47.9312 10.6952 47.9776C11.136 47.9776 11.5768 48.0936 11.948 48.372C12.1336 48.5576 12.2728 48.7896 12.3656 49.0448C12.5744 49.5784 12.6904 50.1584 12.6904 50.7384C12.644 51.2256 12.6904 51.7128 12.8528 52.1768C13.456 53.0816 14.5696 53.5224 15.6136 53.244C16.24 52.9888 16.9128 52.8264 17.5856 52.7104C17.8408 52.7104 18.0728 52.8032 18.2584 52.9888C18.3512 53.128 18.4208 53.2904 18.4208 53.4528C18.4208 53.5688 18.4208 53.6848 18.3976 53.824C19.8592 53.244 21.0656 52.316 21.0192 50.7616C21.0192 50.576 20.9728 50.4136 20.8568 50.2976Z" fill="#9CEB60"/>
  <path d="M14.2216 55.3321C11.4608 55.3089 8.6768 55.0536 5.9392 54.6129H5.8232C4.3616 54.4736 2.3896 54.2649 1.5544 52.5481C1.5544 52.5481 1.5544 52.5249 1.5312 52.5249C1.2528 51.8753 1.16 51.1329 1.3224 50.4369V50.4137C1.74 48.7897 2.2968 47.2121 2.9464 45.6577C3.5264 43.9641 4.1528 42.2705 4.8024 40.6001L4.8256 40.5537C5.1504 39.7649 5.7304 38.2801 7.1688 38.3497C7.192 38.3497 7.2152 38.3497 7.2384 38.3497C8.004 38.4657 8.6536 39.0225 8.8624 39.7881C9.0016 40.3217 9.0712 40.8785 9.0712 41.4353C9.1176 42.2241 9.2568 43.0129 9.4888 43.7553C9.6048 44.0801 9.9064 44.8457 10.3704 44.9385C10.8344 44.8921 11.2752 44.7993 11.6928 44.6137C11.7392 44.5905 11.8088 44.5673 11.8552 44.5673C12.3424 44.4977 12.8296 44.4745 13.3168 44.5441C13.8968 44.5441 14.4768 44.7297 14.9408 45.0777C14.964 45.1009 15.0104 45.1241 15.0336 45.1473C15.2888 45.4025 15.4976 45.7273 15.6136 46.0753C15.8456 46.7017 15.9616 47.3281 15.9848 48.0009C15.9848 48.0241 15.9848 48.0473 15.9848 48.0937C15.9384 48.4417 15.9848 48.8129 16.0776 49.1377C16.5184 49.7177 17.2608 49.9961 17.9568 49.8337C18.6296 49.5785 19.3256 49.3929 20.0448 49.2769C20.068 49.2769 20.1144 49.2769 20.1376 49.2769C20.5784 49.2537 21.0424 49.4625 21.344 49.7873C21.3672 49.8105 21.3672 49.8105 21.3904 49.8337C21.576 50.0889 21.692 50.4137 21.692 50.7385C21.7152 51.8753 21.228 53.4529 18.6992 54.4505C17.052 55.1001 15.1728 55.2857 14.1984 55.3321C14.2448 55.3321 14.2448 55.3321 14.2216 55.3321ZM2.8768 51.9217C3.364 52.8961 4.756 53.0353 5.9856 53.1745L6.1248 53.1977C6.148 53.1977 6.148 53.1977 6.1712 53.1977C8.816 53.6385 11.5304 53.8937 14.1984 53.9169C14.9176 53.8705 16.7272 53.7313 18.212 53.1281C20.3232 52.2697 20.3 51.1561 20.3 50.7849V50.7617C20.2768 50.7617 20.2536 50.7385 20.2304 50.7385C19.6272 50.8313 19.0472 50.9937 18.4904 51.2025C18.4672 51.2025 18.444 51.2257 18.3976 51.2257C17.052 51.5737 15.6136 51.0169 14.848 49.8569C14.8016 49.8105 14.7784 49.7409 14.7552 49.6713C14.5696 49.1145 14.5232 48.5577 14.5696 47.9777C14.5464 47.4905 14.4536 47.0265 14.2912 46.5625V46.5393C14.2448 46.4233 14.1752 46.3073 14.1056 46.1913C13.8736 46.0521 13.6184 45.9593 13.34 45.9825C13.2936 45.9825 13.2704 45.9825 13.224 45.9825C12.876 45.9361 12.528 45.9361 12.2032 45.9825C11.6232 46.2145 11.0432 46.3305 10.4168 46.3769C10.3704 46.3769 10.324 46.3769 10.2776 46.3769C9.6048 46.3073 8.7 45.8433 8.1432 44.1961C7.8416 43.3145 7.6792 42.3865 7.6328 41.4585C7.6328 41.4353 7.6328 41.4121 7.6328 41.4121C7.656 40.9945 7.5864 40.5769 7.4936 40.1825C7.4472 39.9969 7.2848 39.8577 7.076 39.8113C6.7048 39.8345 6.38 40.6465 6.1944 41.1105L6.1712 41.1569C5.5216 42.8041 4.8952 44.4745 4.3384 46.1681C4.3384 46.1913 4.3152 46.1913 4.3152 46.2145C3.6888 47.6993 3.1784 49.2305 2.7608 50.7849C2.6912 51.1329 2.7144 51.5505 2.8768 51.9217Z" fill="#45413C"/>
  <path d="M56.0048 12.1104C53.5456 10.0224 50.8544 9.21041 49.7176 10.3472C48.2328 11.832 34.5448 20.2072 22.2488 35.4264C20.5552 33.524 19.2328 31.2968 18.3512 28.9072C30.6704 13.7112 44.312 5.35921 45.7736 3.87441C47.0496 2.59841 50.2512 3.73521 52.9192 6.42641C54.868 8.35201 56.0048 10.556 56.0048 12.1104Z" fill="#ADC4D9"/>
  <path d="M55.4582 13.5674C56.7266 12.299 55.5882 9.1041 52.9155 6.43137C50.2427 3.75865 47.0478 2.62023 45.7794 3.88864C44.511 5.15705 45.6494 8.35197 48.3221 11.0247C50.9949 13.6974 54.1898 14.8358 55.4582 13.5674Z" fill="#C0DCEB"/>
  <path d="M54.0328 14.8249C53.476 14.8249 52.8496 14.7089 52.2 14.4769C50.7616 13.9665 49.2072 12.9225 47.8384 11.5537C44.776 8.49125 43.6856 4.98805 45.2864 3.38725C46.8872 1.78645 50.4136 2.87685 53.4528 5.93925C54.8216 7.30805 55.8656 8.86245 56.376 10.3009C56.956 11.9249 56.8168 13.2705 56.0048 14.1057C55.4944 14.5697 54.8448 14.8249 54.0328 14.8249ZM46.3072 4.38485C45.472 5.22005 46.3768 8.02725 48.8592 10.5097C50.0888 11.7393 51.4344 12.6441 52.6872 13.0849C53.7312 13.4561 54.5896 13.4329 54.984 13.0385C55.3784 12.6441 55.4016 11.7857 55.0304 10.7417C54.5896 9.48885 53.6616 8.12005 52.4552 6.91365C49.9496 4.45445 47.1424 3.54965 46.3072 4.38485Z" fill="#45413C"/>
  <path d="M36.1224 34.8928C30.276 33.06 25.6824 28.5128 23.8032 22.6896C21.924 24.6848 20.1144 26.7496 18.3744 28.884C20.2536 34.3128 24.5456 38.6048 29.9744 40.484C32.1784 38.5584 34.2432 36.7024 36.1224 34.8928Z" fill="#F2C100"/>
  <path d="M22.2488 35.4264C23.9424 33.3384 25.7056 31.2968 27.5616 29.348C25.8912 27.3992 24.592 25.1488 23.8032 22.7128C21.924 24.708 20.1144 26.7728 18.3744 28.9304C19.2328 31.2968 20.5552 33.524 22.2488 35.4264Z" fill="#FFE500"/>
  <path d="M29.9744 41.2265C29.9048 41.2265 29.812 41.2033 29.7424 41.1801C24.0584 39.2081 19.6736 34.8233 17.7016 29.1393C17.6088 28.9073 17.6552 28.6289 17.8176 28.4433C27.6776 16.2865 38.4656 8.39846 43.0592 5.05766C44.1496 4.26886 45.008 3.64246 45.2632 3.36406C46.864 1.76326 50.3904 2.85366 53.4296 5.91606C54.7984 7.28486 55.8424 8.83926 56.3528 10.2777C56.9328 11.8785 56.7936 13.2241 56.0048 14.0361C48.4184 23.8497 39.8112 32.9441 30.4152 41.0409C30.2992 41.1569 30.1368 41.2265 29.9744 41.2265ZM19.1864 29.0465C21.0192 33.9881 24.8704 37.8393 29.812 39.6721C39.0224 31.7145 47.4672 22.7825 54.9144 13.1313C54.9376 13.1081 54.9608 13.0849 54.984 13.0617C55.3784 12.6673 55.4016 11.8089 55.0304 10.7649C54.5896 9.51206 53.6616 8.14326 52.432 6.93686C49.9496 4.45446 47.1424 3.54966 46.3072 4.38486C45.9592 4.73286 45.1936 5.28966 43.9176 6.21766C39.3936 9.51206 28.8608 17.1913 19.1864 29.0465Z" fill="#45413C"/>
  <path d="M29.9744 41.2264C29.9048 41.2264 29.812 41.2032 29.7424 41.18C24.0584 39.208 19.6736 34.8232 17.7016 29.1392C17.6088 28.9072 17.6552 28.6288 17.8176 28.4432C19.5576 26.3088 21.3904 24.1976 23.2696 22.2024C23.4552 22.0168 23.7104 21.924 23.9656 21.9936C24.2208 22.04 24.4064 22.2256 24.4992 22.4808C26.3088 28.072 30.74 32.4568 36.3544 34.22C36.424 34.2432 36.5168 34.2896 36.5632 34.336C36.6096 34.3592 36.6328 34.3824 36.656 34.4288C36.9344 34.7304 36.9112 35.1712 36.6328 35.4496C34.7536 37.236 32.6656 39.1152 30.4616 41.064C30.2992 41.1568 30.1368 41.2264 29.9744 41.2264ZM19.1864 29.0464C21.0192 33.988 24.8704 37.8392 29.812 39.672C31.552 38.1408 33.2224 36.6328 34.7536 35.1944C29.6032 33.2224 25.52 29.1856 23.5016 24.0584C22.0168 25.6824 20.5784 27.3528 19.1864 29.0464Z" fill="#45413C"/>
</svg>