<svg xmlns="http://www.w3.org/2000/svg" width="57" height="57" viewBox="0 0 57 57" fill="none">
  <g clip-path="url(#clip0_932_25)">
    <path d="M1.06408 0.750244C0.858703 1.1092 0.74938 1.51548 0.746766 1.92951V53.8218C0.746139 54.1404 0.808066 54.456 0.929003 54.7506C1.04994 55.0452 1.22751 55.3129 1.45156 55.5384C1.6756 55.7639 1.94172 55.9428 2.23468 56.0649C2.52764 56.187 2.84169 56.2498 3.15885 56.2498H55.7427C55.9145 56.2491 56.0858 56.229 56.2532 56.1899L1.06408 0.750244ZM32.7718 48.8003H9.13536C8.84746 48.8003 8.57134 48.6854 8.36776 48.4809C8.16418 48.2764 8.04981 47.999 8.04981 47.7098V24.381C8.05147 24.195 8.10077 24.0126 8.19296 23.8513L33.0056 48.7788C32.9273 48.7959 32.8472 48.8031 32.7671 48.8003H32.7718Z" fill="#C0DCEB"/>
    <path d="M1.06408 0.750244C0.858702 1.1092 0.749379 1.51548 0.746765 1.92951V6.21032L50.5606 56.2522H55.7427C55.9145 56.2503 56.0856 56.2302 56.2532 56.1923L1.06408 0.750244Z" fill="#D9FDFF"/>
    <path d="M32.7718 48.8003H9.13536C8.84746 48.8003 8.57134 48.6854 8.36776 48.4809C8.16418 48.2763 8.04981 47.999 8.04981 47.7097V24.381C8.05147 24.195 8.10077 24.0126 8.19296 23.8513L33.0056 48.7787C32.9289 48.7956 32.8504 48.8028 32.7718 48.8003Z" fill="#E8F4FA"/>
    <path d="M32.7957 49.5505H9.13537C8.65001 49.5499 8.18468 49.3561 7.84126 49.0115C7.49783 48.667 7.30431 48.1997 7.30304 47.7121V24.381C7.30449 24.0643 7.38662 23.7532 7.54163 23.4774C7.59922 23.378 7.67855 23.2932 7.77363 23.2292C7.8687 23.1653 7.97702 23.1239 8.09037 23.1082C8.20387 23.0931 8.31932 23.1045 8.42774 23.1415C8.53616 23.1785 8.63461 23.2401 8.71546 23.3216L33.5281 48.249C33.6229 48.3448 33.6901 48.4645 33.7228 48.5955C33.7555 48.7265 33.7523 48.8639 33.7137 48.9933C33.6751 49.1226 33.6025 49.2391 33.5035 49.3304C33.4045 49.4218 33.2828 49.4846 33.1512 49.5122C33.0342 49.5364 32.9151 49.5493 32.7957 49.5505ZM8.79419 25.5147V47.7097C8.79419 47.7546 8.80303 47.7991 8.82021 47.8405C8.83738 47.882 8.86255 47.9196 8.89426 47.9513C8.92597 47.9829 8.9636 48.0079 9.00498 48.0249C9.04636 48.0418 9.09067 48.0504 9.13537 48.0501H31.2282L8.79419 25.5147Z" fill="#45413C"/>
    <path d="M43.0333 51.5711C42.8858 51.5708 42.7417 51.5266 42.6192 51.4442C42.4967 51.3617 42.4012 51.2446 42.3448 51.1078C42.2884 50.9709 42.2737 50.8203 42.3023 50.6749C42.331 50.5296 42.4019 50.3961 42.506 50.2912L46.4427 46.3339C46.5849 46.2057 46.7706 46.1372 46.9616 46.1424C47.1525 46.1476 47.3343 46.2261 47.4694 46.3619C47.6045 46.4976 47.6827 46.6802 47.6878 46.872C47.693 47.0639 47.6248 47.2505 47.4972 47.3933L43.5606 51.3506C43.4207 51.4911 43.2311 51.5704 43.0333 51.5711ZM41.5422 47.1177C41.3947 47.1181 41.2504 47.0744 41.1276 46.9923C41.0049 46.9101 40.9092 46.7932 40.8527 46.6563C40.7962 46.5194 40.7815 46.3688 40.8103 46.2235C40.8392 46.0782 40.9104 45.9448 41.0149 45.8402L43.4818 43.3618C43.5496 43.2859 43.632 43.2247 43.7241 43.1819C43.8162 43.1391 43.916 43.1156 44.0175 43.1129C44.1189 43.1101 44.2198 43.1281 44.3141 43.1659C44.4084 43.2036 44.494 43.2602 44.5657 43.3323C44.6375 43.4044 44.6939 43.4904 44.7314 43.5851C44.769 43.6798 44.7869 43.7812 44.7842 43.8831C44.7814 43.985 44.758 44.0853 44.7154 44.1778C44.6728 44.2703 44.6119 44.3531 44.5364 44.4212L42.0694 46.8996C42.0002 46.9691 41.918 47.0241 41.8275 47.0616C41.737 47.099 41.64 47.1181 41.5422 47.1177ZM37.1093 45.6197C36.9618 45.62 36.8175 45.5764 36.6948 45.4942C36.572 45.4121 36.4763 45.2951 36.4198 45.1583C36.3633 45.0214 36.3486 44.8707 36.3775 44.7254C36.4063 44.5801 36.4775 44.4467 36.582 44.3421L40.521 40.3849C40.6609 40.2447 40.8504 40.1661 41.0479 40.1663C41.2455 40.1665 41.4348 40.2456 41.5744 40.3861C41.7139 40.5266 41.7921 40.717 41.7919 40.9154C41.7917 41.1139 41.713 41.3041 41.5732 41.4443L37.6365 45.4015C37.5673 45.471 37.4851 45.5261 37.3946 45.5635C37.3041 45.6009 37.2071 45.62 37.1093 45.6197ZM35.6181 41.1687C35.4707 41.1684 35.3266 41.1242 35.2041 41.0417C35.0815 40.9593 34.9861 40.8422 34.9297 40.7053C34.8733 40.5684 34.8585 40.4178 34.8872 40.2725C34.9159 40.1272 34.9867 39.9936 35.0909 39.8887L37.5674 37.4104C37.6351 37.3345 37.7176 37.2733 37.8097 37.2305C37.9017 37.1877 38.0016 37.1642 38.103 37.1614C38.2044 37.1587 38.3053 37.1767 38.3996 37.2144C38.4939 37.2522 38.5795 37.3088 38.6512 37.3809C38.723 37.453 38.7794 37.539 38.8169 37.6337C38.8545 37.7284 38.8724 37.8298 38.8697 37.9317C38.867 38.0336 38.8436 38.1339 38.801 38.2264C38.7583 38.3189 38.6974 38.4017 38.6219 38.4698L36.1359 40.9482C35.9986 41.0868 35.8128 41.166 35.6181 41.1687ZM31.1852 39.6706C31.0378 39.6703 30.8937 39.6261 30.7712 39.5437C30.6487 39.4612 30.5532 39.3442 30.4968 39.2073C30.4404 39.0704 30.4256 38.9198 30.4543 38.7745C30.483 38.6291 30.5539 38.4956 30.658 38.3907L34.597 34.4359C34.7392 34.3077 34.9249 34.2391 35.1159 34.2443C35.3069 34.2495 35.4886 34.3281 35.6237 34.4638C35.7588 34.5995 35.837 34.7821 35.8422 34.974C35.8473 35.1658 35.7791 35.3524 35.6515 35.4953L31.7125 39.4501C31.6434 39.5199 31.5613 39.5753 31.4708 39.6132C31.3803 39.651 31.2833 39.6705 31.1852 39.6706ZM29.6941 35.2124C29.596 35.2129 29.4988 35.1936 29.4083 35.1558C29.3177 35.1179 29.2356 35.0622 29.1668 34.9919C29.0273 34.8513 28.9489 34.6608 28.9489 34.4622C28.9489 34.2636 29.0273 34.0731 29.1668 33.9325L31.6338 31.4565C31.776 31.3284 31.9617 31.2598 32.1527 31.265C32.3437 31.2702 32.5254 31.3488 32.6605 31.4845C32.7956 31.6202 32.8738 31.8028 32.879 31.9947C32.8841 32.1865 32.8159 32.3731 32.6883 32.516L30.2238 34.9967C30.1543 35.0664 30.0716 35.1214 29.9807 35.1584C29.8897 35.1955 29.7923 35.2138 29.6941 35.2124ZM25.2612 33.7144C25.1631 33.7149 25.0659 33.6956 24.9754 33.6577C24.8848 33.6198 24.8027 33.5641 24.7339 33.4939C24.5944 33.3533 24.516 33.1628 24.516 32.9642C24.516 32.7656 24.5944 32.5751 24.7339 32.4345L28.6706 28.4796C28.8128 28.3514 28.9985 28.2829 29.1895 28.2881C29.3805 28.2933 29.5622 28.3718 29.6973 28.5076C29.8324 28.6433 29.9106 28.8259 29.9158 29.0177C29.9209 29.2096 29.8527 29.3962 29.7251 29.539L25.7885 33.4939C25.7204 33.5647 25.6389 33.6211 25.5487 33.6598C25.4586 33.6985 25.3616 33.7187 25.2636 33.7192L25.2612 33.7144ZM23.7725 29.261C23.625 29.2614 23.4807 29.2177 23.3579 29.1356C23.2352 29.0534 23.1395 28.9365 23.083 28.7996C23.0265 28.6627 23.0118 28.5121 23.0407 28.3668C23.0695 28.2215 23.1407 28.0881 23.2452 27.9835L25.7098 25.5051C25.7775 25.4292 25.86 25.368 25.9521 25.3252C26.0441 25.2824 26.144 25.2589 26.2454 25.2562C26.3468 25.2534 26.4478 25.2714 26.542 25.3092C26.6363 25.3469 26.7219 25.4035 26.7936 25.4756C26.8654 25.5477 26.9218 25.6337 26.9593 25.7284C26.9969 25.8231 27.0148 25.9245 27.0121 26.0264C27.0094 26.1283 26.986 26.2286 26.9434 26.3211C26.9008 26.4136 26.8398 26.4965 26.7643 26.5645L24.3021 29.0477C24.1618 29.1874 23.9723 29.2658 23.7748 29.2658L23.7725 29.261ZM19.3396 27.7821C19.1923 27.7814 19.0486 27.7369 18.9264 27.6542C18.8042 27.5716 18.7091 27.4545 18.653 27.3177C18.5969 27.1809 18.5824 27.0305 18.6111 26.8854C18.6399 26.7403 18.7107 26.607 18.8147 26.5022L22.7513 22.5474C22.8206 22.478 22.9027 22.4229 22.9931 22.3854C23.0836 22.3479 23.1804 22.3287 23.2782 22.3288C23.3761 22.3289 23.4729 22.3484 23.5632 22.3861C23.6535 22.4238 23.7356 22.479 23.8047 22.5486C23.8738 22.6181 23.9285 22.7007 23.9659 22.7915C24.0032 22.8823 24.0223 22.9797 24.0222 23.0779C24.0221 23.1762 24.0027 23.2735 23.9652 23.3642C23.9277 23.455 23.8727 23.5374 23.8035 23.6068L19.8668 27.5424C19.7993 27.6157 19.7179 27.6747 19.6273 27.7159C19.5368 27.757 19.4389 27.7796 19.3396 27.7821ZM17.8508 23.3287C17.6993 23.3325 17.5503 23.2899 17.4235 23.2065C17.2967 23.1231 17.1981 23.003 17.1409 22.862C17.0837 22.721 17.0705 22.5659 17.1031 22.4172C17.1357 22.2686 17.2126 22.1334 17.3235 22.0296L19.7905 19.5609C19.9327 19.4327 20.1184 19.3641 20.3094 19.3693C20.5004 19.3745 20.6821 19.4531 20.8172 19.5888C20.9523 19.7245 21.0305 19.9071 21.0357 20.099C21.0409 20.2908 20.9726 20.4774 20.845 20.6203L18.3781 23.0963C18.309 23.1661 18.2268 23.2215 18.1363 23.2593C18.0459 23.2972 17.9488 23.3167 17.8508 23.3168V23.3287ZM13.4179 21.8187C13.271 21.8179 13.1275 21.7736 13.0055 21.6913C12.8834 21.6089 12.7883 21.4923 12.732 21.3559C12.6757 21.2195 12.6607 21.0694 12.689 20.9245C12.7172 20.7796 12.7874 20.6462 12.8907 20.5412L16.8273 16.5863C16.8964 16.5168 16.9784 16.4616 17.0688 16.4239C17.1591 16.3862 17.2559 16.3667 17.3537 16.3666C17.4515 16.3665 17.5484 16.3857 17.6388 16.4232C17.7292 16.4607 17.8114 16.5157 17.8806 16.5852C17.9499 16.6546 18.0048 16.737 18.0424 16.8277C18.0799 16.9185 18.0993 17.0157 18.0994 17.114C18.0995 17.2123 18.0803 17.3096 18.043 17.4004C18.0057 17.4913 17.9509 17.5738 17.8818 17.6434L13.9476 21.5982C13.8782 21.6683 13.7957 21.7239 13.7047 21.7617C13.6138 21.7996 13.5163 21.819 13.4179 21.8187ZM11.9292 17.3653C11.7817 17.3657 11.6374 17.322 11.5147 17.2399C11.3919 17.1577 11.2962 17.0408 11.2397 16.9039C11.1832 16.7671 11.1685 16.6164 11.1974 16.4711C11.2262 16.3258 11.2974 16.1924 11.4019 16.0878L13.8689 13.6094C13.9381 13.54 14.0203 13.485 14.1107 13.4475C14.2011 13.41 14.298 13.3908 14.3958 13.3909C14.4936 13.391 14.5904 13.4104 14.6807 13.4482C14.7711 13.4859 14.8531 13.5411 14.9222 13.6106C14.9913 13.6802 15.0461 13.7627 15.0834 13.8536C15.1207 13.9444 15.1399 14.0417 15.1398 14.14C15.1397 14.2383 15.1203 14.3355 15.0827 14.4263C15.0452 14.517 14.9903 14.5994 14.921 14.6689L12.4541 17.1472C12.3852 17.2165 12.3034 17.2715 12.2133 17.3089C12.1232 17.3463 12.0267 17.3655 11.9292 17.3653ZM7.50584 15.8673C7.35948 15.8677 7.21625 15.8247 7.09407 15.7438C6.97188 15.6628 6.87616 15.5475 6.81888 15.4122C6.76159 15.2769 6.74528 15.1276 6.77199 14.983C6.79869 14.8384 6.86723 14.705 6.96903 14.5993L10.9057 10.6421C10.9734 10.5662 11.0559 10.505 11.148 10.4622C11.24 10.4194 11.3399 10.3959 11.4413 10.3932C11.5427 10.3904 11.6436 10.4084 11.7379 10.4462C11.8322 10.4839 11.9178 10.5405 11.9895 10.6126C12.0613 10.6847 12.1177 10.7707 12.1552 10.8654C12.1928 10.9601 12.2107 11.0615 12.208 11.1634C12.2052 11.2653 12.1819 11.3656 12.1393 11.4581C12.0966 11.5506 12.0357 11.6335 11.9602 11.7015L8.02357 15.6492C7.88566 15.7865 7.70003 15.8647 7.50584 15.8673Z" fill="#8CA4B8"/>
    <path d="M3.16123 56.9997C2.3226 56.9991 1.51854 56.664 0.925759 56.068C0.332981 55.472 -2.38481e-07 54.664 0 53.8215V1.92921C0.00383046 1.38478 0.147655 0.850577 0.417521 0.378434C0.474024 0.278186 0.552817 0.192408 0.647753 0.127792C0.74269 0.0631757 0.851203 0.0214684 0.964827 0.00592369C1.07845 -0.00962107 1.19411 0.00141701 1.30279 0.0381769C1.41147 0.0749369 1.51022 0.136425 1.59135 0.217843L56.7805 55.6575C56.8745 55.7525 56.9415 55.8711 56.9746 56.0009C57.0078 56.1306 57.0058 56.267 56.969 56.3957C56.9326 56.5247 56.8621 56.6413 56.7651 56.7333C56.6681 56.8253 56.5481 56.8892 56.4179 56.9182C56.1987 56.9687 55.9747 56.9952 55.7498 56.9973L3.16123 56.9997ZM1.49115 2.23841V53.8215C1.49115 54.2665 1.6671 54.6932 1.9803 55.0079C2.29351 55.3225 2.7183 55.4993 3.16123 55.4993H54.5068L1.49115 2.23841Z" fill="#45413C"/>
  </g>
  <defs>
    <clipPath id="clip0_932_25">
      <rect width="57" height="57" fill="white"/>
    </clipPath>
  </defs>
</svg>