<svg xmlns="http://www.w3.org/2000/svg" width="49" height="67" viewBox="0 0 49 67" fill="none">
  <path d="M30.9638 6.29224H18.1117C16.7716 6.29224 15.6752 5.19584 15.6752 3.8558C15.6752 2.51577 16.7716 1.41937 18.1117 1.41937H30.9638C32.3039 1.41937 33.4003 2.51577 33.4003 3.8558C33.4003 5.19584 32.3039 6.29224 30.9638 6.29224Z" fill="#D9D6E5"/>
  <path fill-rule="evenodd" clip-rule="evenodd" d="M18.1117 2.02852C17.1081 2.02852 16.2844 2.85221 16.2844 3.85584C16.2844 4.85948 17.1081 5.68317 18.1117 5.68317H30.9639C31.9675 5.68317 32.7912 4.85948 32.7912 3.85584C32.7912 2.85221 31.9675 2.02852 30.9639 2.02852H18.1117ZM15.0662 3.85584C15.0662 2.1794 16.4353 0.810303 18.1117 0.810303H30.9639C32.6403 0.810303 34.0094 2.1794 34.0094 3.85584C34.0094 5.53228 32.6403 6.90138 30.9639 6.90138H18.1117C16.4353 6.90138 15.0662 5.53228 15.0662 3.85584Z" fill="#3F2975"/>
  <path d="M30.0096 32.2809V6.2923H19.0456V32.2809L1.25969 60.1577C-0.466116 62.8581 1.44242 66.3909 4.65039 66.3909H44.2627C47.4707 66.3909 49.4604 62.8581 47.7346 60.1577L30.0096 32.2809Z" fill="white"/>
  <path fill-rule="evenodd" clip-rule="evenodd" d="M18.4365 6.29221C18.4365 5.95581 18.7092 5.68311 19.0456 5.68311H30.0096C30.346 5.68311 30.6187 5.95581 30.6187 6.29221V32.1036L48.2479 59.8296C48.2481 59.8299 48.2482 59.8302 48.2484 59.8305C50.2404 62.9488 47.9365 67 44.2627 67H4.65039C0.954811 67 -1.23474 62.9302 0.746197 59.83M0.746449 59.8296L18.4365 32.1031V6.29221M19.6548 6.90132V32.2808C19.6548 32.3969 19.6216 32.5106 19.5591 32.6084L1.77319 60.4853L1.77294 60.4857C0.302693 62.7862 1.93019 65.7818 4.65039 65.7818H44.2627C47.0045 65.7818 48.68 62.768 47.2214 60.4857L47.2206 60.4845L29.4956 32.6076C29.4335 32.51 29.4005 32.3966 29.4005 32.2808V6.90132H19.6548Z" fill="#3F2975"/>
  <path d="M45.3185 61.6601L38.1716 50.412C37.4204 48.6252 35.7961 47.407 33.9079 47.407C32.9536 47.407 32.0399 47.7319 31.309 48.2801C30.4563 47.3664 29.299 46.7979 28.0198 46.7979C26.2331 46.7979 24.6697 47.9146 23.8779 49.5389H23.0251C22.1724 48.6049 20.9948 48.0161 19.6954 48.0161C18.3959 48.0161 17.2183 48.6049 16.3656 49.5389H16.0001C15.3504 49.9247 14.5991 50.148 13.787 50.148C12.9749 50.148 12.2439 49.9247 11.5739 49.5389H11.3709L3.63521 61.6601C3.24944 62.2693 3.47278 62.7565 3.554 62.8987C3.67582 63.1423 4.00067 63.5281 4.63008 63.5281H44.2424C44.9124 63.5281 45.2373 63.0814 45.3388 62.8987C45.5012 62.6144 45.6231 62.1677 45.3185 61.6601Z" fill="#44E3BF"/>
  <path fill-rule="evenodd" clip-rule="evenodd" d="M23.5113 48.9298C24.4369 47.3101 26.0993 46.1888 28.0198 46.1888C29.3039 46.1888 30.4701 46.6893 31.3808 47.4997C32.1272 47.0546 32.9999 46.798 33.9079 46.798C36.0575 46.798 37.8709 48.1735 38.7125 50.1275L45.8326 61.3335C45.8343 61.3362 45.8359 61.3388 45.8376 61.3415C45.8387 61.3433 45.8397 61.345 45.8408 61.3468C46.2899 62.0952 46.1052 62.7835 45.8693 63.1981C45.7163 63.4715 45.2278 64.1372 44.2424 64.1372H4.63007C3.71578 64.1372 3.21382 63.5694 3.01665 63.1858C2.87322 62.9271 2.57663 62.1932 3.12061 61.3343L3.12174 61.3325L10.8574 49.2113C10.9693 49.0359 11.1629 48.9298 11.3709 48.9298H11.5739C11.6806 48.9298 11.7854 48.9578 11.8778 49.0111C12.4661 49.3498 13.0933 49.5389 13.787 49.5389C14.4848 49.5389 15.1292 49.3476 15.6891 49.0152C15.7832 48.9593 15.8906 48.9298 16.0001 48.9298H16.1059C17.0436 47.9984 18.3017 47.4071 19.6953 47.4071C21.089 47.4071 22.3471 47.9984 23.2847 48.9298H23.5113ZM28.0198 47.4071C26.4994 47.4071 25.1307 48.3591 24.4254 49.8058C24.3233 50.0152 24.1108 50.148 23.8779 50.148H23.0251C22.854 50.148 22.6907 50.076 22.5753 49.9496C21.824 49.1268 20.804 48.6253 19.6953 48.6253C18.5867 48.6253 17.5666 49.1268 16.8154 49.9496C16.7 50.076 16.5367 50.148 16.3655 50.148H16.1616C15.4568 50.5347 14.6517 50.7572 13.787 50.7572C13.004 50.7572 12.2888 50.5748 11.6338 50.2591L4.14978 61.9861C4.14961 61.9864 4.14943 61.9866 4.14926 61.9869C4.03035 62.175 4.01923 62.316 4.02652 62.4046C4.0347 62.504 4.07026 62.5745 4.08283 62.5965C4.08842 62.6063 4.09374 62.6162 4.09878 62.6263C4.15065 62.73 4.29731 62.919 4.63007 62.919H44.2424C44.5927 62.919 44.7539 62.6972 44.8063 62.6029L44.8099 62.5965C44.8569 62.5143 44.89 62.422 44.8957 62.3266C44.901 62.2401 44.8858 62.1254 44.7997 61.9795L37.6575 50.7386C37.6392 50.7098 37.6234 50.6795 37.6101 50.6481C36.94 49.0543 35.5169 48.0162 33.9079 48.0162C33.0912 48.0162 32.3048 48.2947 31.6745 48.7674C31.4256 48.9541 31.076 48.9232 30.8637 48.6957C30.1124 47.8908 29.111 47.4071 28.0198 47.4071Z" fill="#3F2975"/>
  <path d="M22.4363 43.5493C23.5577 43.5493 24.4667 42.6403 24.4667 41.5189C24.4667 40.3976 23.5577 39.4886 22.4363 39.4886C21.3149 39.4886 20.4059 40.3976 20.4059 41.5189C20.4059 42.6403 21.3149 43.5493 22.4363 43.5493Z" fill="#44E3BF"/>
  <path fill-rule="evenodd" clip-rule="evenodd" d="M19.7969 41.519C19.7969 40.0612 20.9786 38.8795 22.4363 38.8795C23.8941 38.8795 25.0758 40.0612 25.0758 41.519C25.0758 42.9768 23.8941 44.1585 22.4363 44.1585C20.9786 44.1585 19.7969 42.9768 19.7969 41.519ZM22.4363 40.0977C21.6514 40.0977 21.0151 40.734 21.0151 41.519C21.0151 42.304 21.6514 42.9402 22.4363 42.9402C23.2213 42.9402 23.8576 42.304 23.8576 41.519C23.8576 40.734 23.2213 40.0977 22.4363 40.0977Z" fill="#3F2975"/>
  <path d="M29.4614 44.1991C30.2014 44.1991 30.8014 43.5991 30.8014 42.859C30.8014 42.1189 30.2014 41.519 29.4614 41.519C28.7213 41.519 28.1213 42.1189 28.1213 42.859C28.1213 43.5991 28.7213 44.1991 29.4614 44.1991Z" fill="#44E3BF"/>
  <path fill-rule="evenodd" clip-rule="evenodd" d="M27.5122 42.8591C27.5122 41.7826 28.3849 40.9099 29.4614 40.9099C30.5378 40.9099 31.4105 41.7826 31.4105 42.8591C31.4105 43.9355 30.5378 44.8082 29.4614 44.8082C28.3849 44.8082 27.5122 43.9355 27.5122 42.8591ZM29.4614 42.1281C29.0577 42.1281 28.7305 42.4554 28.7305 42.8591C28.7305 43.2627 29.0577 43.59 29.4614 43.59C29.865 43.59 30.1923 43.2627 30.1923 42.8591C30.1923 42.4554 29.8651 42.1281 29.4614 42.1281Z" fill="#3F2975"/>
  <path d="M25.1773 31.4688C25.7604 31.4688 26.2331 30.9961 26.2331 30.413C26.2331 29.8299 25.7604 29.3572 25.1773 29.3572C24.5942 29.3572 24.1215 29.8299 24.1215 30.413C24.1215 30.9961 24.5942 31.4688 25.1773 31.4688Z" fill="#44E3BF"/>
  <path fill-rule="evenodd" clip-rule="evenodd" d="M23.5124 30.4129C23.5124 29.4934 24.2578 28.748 25.1773 28.748C26.0968 28.748 26.8422 29.4934 26.8422 30.4129C26.8422 31.3325 26.0968 32.0778 25.1773 32.0778C24.2578 32.0778 23.5124 31.3325 23.5124 30.4129ZM25.1773 29.9663C24.9306 29.9663 24.7306 30.1662 24.7306 30.4129C24.7306 30.6597 24.9306 30.8596 25.1773 30.8596C25.424 30.8596 25.624 30.6597 25.624 30.4129C25.624 30.1662 25.424 29.9663 25.1773 29.9663Z" fill="#3F2975"/>
  <path d="M21.6851 55.5083C22.4026 55.5083 22.9845 54.9266 22.9845 54.2089C22.9845 53.4911 22.4026 52.9094 21.6851 52.9094C20.9674 52.9094 20.3857 53.4911 20.3857 54.2089C20.3857 54.9266 20.9674 55.5083 21.6851 55.5083Z" fill="#3F2975"/>
  <path d="M30.172 57.8635C30.5308 57.8635 30.8217 57.5725 30.8217 57.2137C30.8217 56.855 30.5308 56.564 30.172 56.564C29.8131 56.564 29.5223 56.855 29.5223 57.2137C29.5223 57.5725 29.8131 57.8635 30.172 57.8635Z" fill="#3F2975"/>
  <path fill-rule="evenodd" clip-rule="evenodd" d="M25.1367 18.3932C25.1367 17.8213 25.6003 17.3577 26.1722 17.3577C26.7441 17.3577 27.2077 17.8213 27.2077 18.3932C27.2077 18.9651 26.7441 19.4287 26.1722 19.4287C25.6003 19.4287 25.1367 18.9651 25.1367 18.3932ZM26.1722 18.5759C26.2731 18.5759 26.3549 18.4941 26.3549 18.3932C26.3549 18.2923 26.2731 18.2105 26.1722 18.2105C26.0713 18.2105 25.9895 18.2923 25.9895 18.3932C25.9895 18.4941 26.0713 18.5759 26.1722 18.5759Z" fill="#3F2975"/>
  <path fill-rule="evenodd" clip-rule="evenodd" d="M21.8882 8.85055C21.8882 8.27864 22.3517 7.81506 22.9236 7.81506C23.4955 7.81506 23.9591 8.27861 23.9591 8.85055C23.9591 9.42248 23.4955 9.88603 22.9236 9.88603C22.3517 9.88603 21.8882 9.42246 21.8882 8.85055ZM22.9236 9.03328C23.0245 9.03328 23.1064 8.95142 23.1064 8.85055C23.1064 8.74968 23.0245 8.66782 22.9236 8.66782C22.8228 8.66782 22.7409 8.74966 22.7409 8.85055C22.7409 8.95144 22.8228 9.03328 22.9236 9.03328Z" fill="#3F2975"/>
</svg>