<svg xmlns="http://www.w3.org/2000/svg" width="87" height="60" viewBox="0 0 87 60" fill="none">
  <path d="M5.35713 6.23059H59.1517V15.0739H5.35713C4.77647 15.0739 4.2015 14.9595 3.66504 14.7373C3.12858 14.5151 2.64114 14.1894 2.23056 13.7788C1.81997 13.3682 1.49427 12.8808 1.27206 12.3443C1.04985 11.8079 0.935486 11.2329 0.935486 10.6522C0.935486 10.0716 1.04985 9.4966 1.27206 8.96015C1.49427 8.42369 1.81997 7.93625 2.23056 7.52566C2.64114 7.11507 3.12858 6.78938 3.66504 6.56717C4.2015 6.34496 4.77647 6.23059 5.35713 6.23059Z" fill="#8CA4B8"/>
  <path opacity="0.93" d="M1.13615 9.33252C1.00278 9.75973 0.935117 10.2047 0.935487 10.6523C0.935487 11.2329 1.04986 11.8079 1.27206 12.3444C1.49427 12.8808 1.81997 13.3683 2.23056 13.7789C2.64114 14.1894 3.12858 14.5151 3.66504 14.7373C4.2015 14.9596 4.77647 15.0739 5.35713 15.0739H59.1517V12.4344H5.35713C4.41492 12.4343 3.49735 12.1334 2.73811 11.5755C1.97887 11.0175 1.41762 10.2317 1.13615 9.33252Z" fill="#ADC4D9"/>
  <path opacity="0.67" d="M5.35713 6.23059C4.77647 6.23059 4.2015 6.34496 3.66504 6.56717C3.12858 6.78938 2.64114 7.11507 2.23056 7.52566C1.81997 7.93625 1.49427 8.42369 1.27206 8.96015C1.04985 9.49661 0.935486 10.0716 0.935486 10.6522C0.936313 10.9783 0.973177 11.3032 1.04541 11.6212C1.26516 10.6416 1.81186 9.76594 2.59553 9.13839C3.37921 8.51085 4.35316 8.16878 5.35713 8.16848H59.1517V6.23059H5.35713Z" fill="#8CA4B8"/>
  <path fill-rule="evenodd" clip-rule="evenodd" d="M5.35715 7.16617C4.89934 7.16617 4.44601 7.25634 4.02306 7.43153C3.6001 7.60673 3.21579 7.86352 2.89207 8.18724C2.56835 8.51096 2.31156 8.89526 2.13637 9.31822C1.96117 9.74118 1.871 10.1945 1.871 10.6523C1.871 11.1101 1.96117 11.5634 2.13637 11.9864C2.31156 12.4094 2.56835 12.7937 2.89207 13.1174C3.21579 13.4411 3.6001 13.6979 4.02306 13.8731C4.44602 14.0483 4.89934 14.1385 5.35715 14.1385H58.2162V7.16617H5.35715ZM3.30705 5.70295C3.95701 5.43373 4.65364 5.29517 5.35715 5.29517H59.1517C59.6684 5.29517 60.0872 5.714 60.0872 6.23067V15.074C60.0872 15.5906 59.6684 16.0095 59.1517 16.0095H5.35715C4.65363 16.0095 3.95701 15.8709 3.30705 15.6017C2.6571 15.3324 2.06653 14.9378 1.56907 14.4404C1.07161 13.9429 0.67701 13.3524 0.407788 12.7024C0.138566 12.0524 0 11.3558 0 10.6523C0 9.9488 0.138566 9.25218 0.407788 8.60222C0.67701 7.95226 1.07161 7.3617 1.56907 6.86424C2.06653 6.36678 2.65709 5.97218 3.30705 5.70295Z" fill="#45413C"/>
  <path d="M62.5813 4.89587H59.151V16.4086H62.5813V4.89587Z" fill="#FFDC7B"/>
  <path opacity="0.43" d="M62.5813 4.87598H59.151V7.62541H62.5813V4.87598Z" fill="white"/>
  <path d="M62.5813 12.9097H59.151V16.4286H62.5813V12.9097Z" fill="#F48D31"/>
  <path fill-rule="evenodd" clip-rule="evenodd" d="M58.2155 4.89595C58.2155 4.37929 58.6344 3.96045 59.151 3.96045H62.5813C63.098 3.96045 63.5168 4.37929 63.5168 4.89595V16.4087C63.5168 16.9254 63.098 17.3442 62.5813 17.3442H59.151C58.6344 17.3442 58.2155 16.9254 58.2155 16.4087V4.89595ZM60.0865 5.83145V15.4732H61.6458V5.83145H60.0865Z" fill="#45413C"/>
  <path d="M14.0716 4.89587H10.6413V16.4086H14.0716V4.89587Z" fill="#FFDC7B"/>
  <path opacity="0.43" d="M14.0716 4.89587H10.6413V7.64531H14.0716V4.89587Z" fill="white"/>
  <path d="M14.0716 12.9298H10.6413V16.4487H14.0716V12.9298Z" fill="#F48D31"/>
  <path fill-rule="evenodd" clip-rule="evenodd" d="M9.70581 4.89595C9.70581 4.37929 10.1246 3.96045 10.6413 3.96045H14.0716C14.5882 3.96045 15.0071 4.37929 15.0071 4.89595V16.4087C15.0071 16.9254 14.5882 17.3442 14.0716 17.3442H10.6413C10.1246 17.3442 9.70581 16.9254 9.70581 16.4087V4.89595ZM11.5768 5.83145V15.4732H13.1361V5.83145H11.5768Z" fill="#45413C"/>
  <path d="M62.5944 13.3115L69.6406 18.1148L85.1914 10.6523L69.5877 3.18982L62.5944 7.99338V13.3115Z" fill="#F48D31"/>
  <path d="M62.5944 13.3115L69.6403 18.1148L85.1914 10.6523H62.5944V13.3115Z" fill="#EE6E31"/>
  <path d="M62.5944 11.7906L69.9093 14.2664L85.1914 10.6523L69.6406 18.1148L62.5944 13.3115V11.7906Z" fill="#E65331"/>
  <path d="M62.5392 9.50537L69.8541 5.44951L83.12 10.6523L69.5854 3.18115L62.5392 7.98449V9.50537Z" fill="#FFE085"/>
  <path fill-rule="evenodd" clip-rule="evenodd" d="M69.0581 2.41866C69.3338 2.22929 69.6896 2.20152 69.9914 2.34583L85.5951 9.80832C85.9199 9.96366 86.1267 10.2916 86.127 10.6517C86.1272 11.0117 85.9208 11.3399 85.5962 11.4957L70.0454 18.9582C69.7445 19.1026 69.3895 19.0757 69.1137 18.8877L62.0675 14.0844C61.8119 13.9102 61.6589 13.6208 61.6589 13.3114V7.99334C61.6589 7.68514 61.8107 7.39672 62.0648 7.22222L69.0581 2.41866ZM69.6718 4.26696L63.5299 8.4857V12.817L69.722 17.0381L83.0262 10.6537L69.6718 4.26696Z" fill="#45413C"/>
  <path fill-rule="evenodd" clip-rule="evenodd" d="M71.2478 10.6523C71.2478 10.1356 71.6666 9.7168 72.1833 9.7168H85.2803C85.797 9.7168 86.2158 10.1356 86.2158 10.6523C86.2158 11.169 85.797 11.5878 85.2803 11.5878H72.1833C71.6666 11.5878 71.2478 11.169 71.2478 10.6523Z" fill="#45413C"/>
  <path d="M72.3809 12.5903C73.4512 12.5903 74.3188 11.7226 74.3188 10.6524C74.3188 9.5821 73.4512 8.71448 72.3809 8.71448C71.3106 8.71448 70.443 9.5821 70.443 10.6524C70.443 11.7226 71.3106 12.5903 72.3809 12.5903Z" fill="#45413C"/>
  <path d="M48.7436 26.1802H31.2029V56.7537H48.7436V26.1802Z" fill="#FFA183"/>
  <path d="M48.7436 26.1802H31.2029V56.7537H48.7436V26.1802Z" fill="#F1C9BD"/>
  <g style="mix-blend-mode:multiply" opacity="0.58">
    <path d="M31.2036 34.453C32.9275 35.3406 34.8387 35.8029 36.7776 35.8016H43.1703C45.1093 35.8029 47.0204 35.3406 48.7443 34.453V26.1802H31.2036V34.453Z" fill="#FFA183"/>
  </g>
  <path fill-rule="evenodd" clip-rule="evenodd" d="M30.2674 26.1801C30.2674 25.6635 30.6863 25.2446 31.2029 25.2446H48.7436C49.2602 25.2446 49.6791 25.6635 49.6791 26.1801V56.7537C49.6791 57.2704 49.2602 57.6892 48.7436 57.6892H31.2029C30.6863 57.6892 30.2674 57.2704 30.2674 56.7537V26.1801ZM32.1384 27.1156V55.8182H47.8081V27.1156H32.1384Z" fill="#45413C"/>
  <path d="M26.4092 7.95178H53.5388V23.5623C53.5388 26.3121 52.4464 28.9494 50.5019 30.8938C48.5575 32.8383 45.9203 33.9306 43.1704 33.9306H36.7769C34.0272 33.9305 31.3901 32.838 29.4458 30.8936C27.5015 28.9491 26.4092 26.312 26.4092 23.5623V7.95178Z" fill="#F1C9BD"/>
  <path d="M43.1694 30.6192H36.7769C34.0271 30.619 31.39 29.5266 29.4457 27.5821C27.5014 25.6376 26.4092 23.0004 26.4092 20.2506V23.5623C26.4092 24.9239 26.6774 26.2722 27.1984 27.5301C27.7195 28.7881 28.4832 29.9311 29.446 30.8939C30.4088 31.8567 31.5518 32.6204 32.8098 33.1415C34.0678 33.6625 35.416 33.9307 36.7776 33.9307H43.1701C44.5318 33.9307 45.8801 33.6625 47.138 33.1415C48.396 32.6204 49.539 31.8567 50.5019 30.8939C51.4647 29.9311 52.2284 28.7881 52.7495 27.5301C53.2706 26.2722 53.5388 24.9239 53.5388 23.5623V20.2506C53.5388 21.6123 53.2706 22.9606 52.7494 24.2187C52.2283 25.4767 51.4645 26.6198 50.5016 27.5826C49.5387 28.5454 48.3956 29.3091 47.1376 29.8302C45.8795 30.3512 44.5311 30.6193 43.1694 30.6192Z" fill="#F2B6A7"/>
  <path fill-rule="evenodd" clip-rule="evenodd" d="M25.4738 7.95174C25.4738 7.43507 25.8926 7.01624 26.4093 7.01624H53.5388C54.0555 7.01624 54.4743 7.43507 54.4743 7.95174V23.5622C54.4743 26.5602 53.2833 29.4354 51.1635 31.5553C49.0436 33.6752 46.1684 34.8661 43.1704 34.8661H36.7769C33.7791 34.8659 30.904 33.6749 28.7843 31.555C26.6646 29.4351 25.4738 26.5601 25.4738 23.5622V7.95174ZM27.3448 8.88724V23.5622C27.3448 26.0639 28.3385 28.4631 30.1074 30.232C31.8762 32.001 34.2753 32.9949 36.7769 32.9951C36.7769 32.9951 36.777 32.9951 36.7769 32.9951H43.1704C45.6722 32.9951 48.0714 32.0013 49.8405 30.2323C51.6095 28.4633 52.6033 26.064 52.6033 23.5622V8.88724H27.3448Z" fill="#45413C"/>
  <path d="M33.1909 6.15987C33.1909 4.28696 31.6726 2.76868 29.7997 2.76868C27.9268 2.76868 26.4085 4.28696 26.4085 6.15987V13.8471C26.4085 15.72 27.9268 17.2383 29.7997 17.2383C31.6726 17.2383 33.1909 15.72 33.1909 13.8471V6.15987Z" fill="#F1C9BD"/>
  <path d="M39.9733 4.60945C39.9733 2.73655 38.455 1.21826 36.5821 1.21826C34.7092 1.21826 33.1909 2.73655 33.1909 4.60945V13.8216C33.1909 15.6945 34.7092 17.2128 36.5821 17.2128C38.455 17.2128 39.9733 15.6945 39.9733 13.8216V4.60945Z" fill="#F1C9BD"/>
  <path d="M46.7556 4.32674C46.7556 2.45383 45.2373 0.935547 43.3644 0.935547C41.4915 0.935547 39.9732 2.45383 39.9732 4.32674V13.8216C39.9732 15.6945 41.4915 17.2128 43.3644 17.2128C45.2373 17.2128 46.7556 15.6945 46.7556 13.8216V4.32674Z" fill="#F1C9BD"/>
  <path d="M53.538 6.41829C53.538 4.54539 52.0197 3.0271 50.1468 3.0271C48.2739 3.0271 46.7556 4.54539 46.7556 6.41829V13.3295C46.7556 15.2024 48.2739 16.7207 50.1468 16.7207C52.0197 16.7207 53.538 15.2024 53.538 13.3295V6.41829Z" fill="#F1C9BD"/>
  <path d="M30.6513 13.7394H28.948C28.6144 13.7393 28.2842 13.6735 27.9761 13.5458C27.6679 13.418 27.388 13.2309 27.1523 12.9949C26.9165 12.759 26.7296 12.4789 26.6021 12.1707C26.4746 11.8625 26.4091 11.5321 26.4092 11.1986V13.847C26.4092 14.7464 26.7665 15.609 27.4025 16.2449C28.0385 16.8809 28.901 17.2382 29.8004 17.2382C30.6998 17.2382 31.5624 16.8809 32.1984 16.2449C32.8343 15.609 33.1916 14.7464 33.1916 13.847V11.1986C33.1918 11.5323 33.1262 11.8627 32.9986 12.171C32.871 12.4793 32.6839 12.7595 32.4479 12.9954C32.212 13.2314 31.9319 13.4185 31.6236 13.5462C31.3154 13.6739 30.9849 13.7395 30.6513 13.7394Z" fill="#F2B6A7"/>
  <path d="M37.4337 13.7129H35.7303C35.057 13.7127 34.4112 13.4451 33.9351 12.9689C33.4591 12.4926 33.1916 11.8468 33.1916 11.1735V13.8216C33.1916 14.721 33.5489 15.5836 34.1849 16.2196C34.8208 16.8555 35.6834 17.2128 36.5828 17.2128C37.4822 17.2128 38.3448 16.8555 38.9807 16.2196C39.6167 15.5836 39.974 14.721 39.974 13.8216V11.1735C39.974 11.507 39.9083 11.8373 39.7806 12.1455C39.6529 12.4536 39.4658 12.7336 39.2299 12.9694C38.994 13.2053 38.7139 13.3923 38.4057 13.5198C38.0975 13.6474 37.7672 13.713 37.4337 13.7129Z" fill="#F2B6A7"/>
  <g style="mix-blend-mode:multiply" opacity="0.58">
    <path d="M44.2161 13.7129H42.5127C41.8394 13.7127 41.1936 13.4451 40.7176 12.9689C40.2415 12.4926 39.974 11.8468 39.974 11.1735V13.8216C39.974 14.721 40.3313 15.5836 40.9673 16.2196C41.6033 16.8555 42.4658 17.2128 43.3652 17.2128C44.2646 17.2128 45.1272 16.8555 45.7632 16.2196C46.3991 15.5836 46.7564 14.721 46.7564 13.8216V11.1735C46.7564 11.507 46.6907 11.8373 46.563 12.1455C46.4353 12.4536 46.2482 12.7336 46.0123 12.9694C45.7764 13.2053 45.4963 13.3923 45.1881 13.5198C44.8799 13.6474 44.5496 13.713 44.2161 13.7129Z" fill="#FFA183"/>
  </g>
  <g style="mix-blend-mode:multiply" opacity="0.58">
    <path d="M50.9984 13.2208H49.2951C48.6217 13.2206 47.9759 12.953 47.4998 12.4767C47.0237 12.0004 46.7563 11.3546 46.7564 10.6812V13.3293C46.7564 14.2287 47.1137 15.0913 47.7496 15.7273C48.3856 16.3632 49.2482 16.7205 50.1476 16.7205C51.047 16.7205 51.9095 16.3632 52.5455 15.7273C53.1815 15.0913 53.5388 14.2287 53.5388 13.3293V10.6812C53.5388 11.0147 53.4731 11.345 53.3454 11.6532C53.2177 11.9614 53.0306 12.2414 52.7947 12.4772C52.5588 12.713 52.2787 12.9001 51.9705 13.0277C51.6623 13.1553 51.332 13.2209 50.9984 13.2208Z" fill="#FFA183"/>
  </g>
  <path opacity="0.43" d="M29.8004 2.76868C28.901 2.76868 28.0385 3.12596 27.4025 3.76193C26.7665 4.3979 26.4092 5.26047 26.4092 6.15987V8.40507C26.4092 7.95973 26.497 7.51875 26.6674 7.10732C26.8378 6.69588 27.0876 6.32204 27.4025 6.00714C27.7174 5.69224 28.0912 5.44244 28.5027 5.27202C28.9141 5.1016 29.3551 5.01388 29.8004 5.01388C30.2458 5.01388 30.6867 5.1016 31.0982 5.27202C31.5096 5.44244 31.8835 5.69224 32.1984 6.00714C32.5133 6.32204 32.7631 6.69588 32.9335 7.10732C33.1039 7.51875 33.1916 7.95973 33.1916 8.40507V6.15987C33.1916 5.26047 32.8343 4.3979 32.1984 3.76193C31.5624 3.12596 30.6998 2.76868 29.8004 2.76868Z" fill="white"/>
  <path opacity="0.43" d="M36.5828 1.21826C35.6834 1.21826 34.8208 1.57555 34.1849 2.21152C33.5489 2.84749 33.1916 3.71005 33.1916 4.60945V6.85465C33.1916 5.95525 33.5489 5.09269 34.1849 4.45672C34.8208 3.82075 35.6834 3.46346 36.5828 3.46346C37.4822 3.46346 38.3448 3.82075 38.9807 4.45672C39.6167 5.09269 39.974 5.95525 39.974 6.85465V4.60945C39.974 3.71005 39.6167 2.84749 38.9807 2.21152C38.3448 1.57555 37.4822 1.21826 36.5828 1.21826Z" fill="white"/>
  <path opacity="0.43" d="M43.3652 0.935547C42.4658 0.935547 41.6033 1.29283 40.9673 1.9288C40.3313 2.56477 39.974 3.42734 39.974 4.32674V6.57194C39.974 5.67254 40.3313 4.80998 40.9673 4.17401C41.6033 3.53803 42.4658 3.18075 43.3652 3.18075C44.2646 3.18075 45.1272 3.53803 45.7632 4.17401C46.3991 4.80998 46.7564 5.67254 46.7564 6.57194V4.32674C46.7564 3.42734 46.3991 2.56477 45.7632 1.9288C45.1272 1.29283 44.2646 0.935547 43.3652 0.935547Z" fill="white"/>
  <path opacity="0.43" d="M50.1476 3.02795C49.2482 3.02795 48.3856 3.38524 47.7496 4.02121C47.1137 4.65719 46.7564 5.51975 46.7564 6.41915V8.66435C46.7564 7.76495 47.1137 6.90239 47.7496 6.26641C48.3856 5.63044 49.2482 5.27316 50.1476 5.27316C51.047 5.27316 51.9095 5.63044 52.5455 6.26641C53.1815 6.90239 53.5388 7.76495 53.5388 8.66435V6.41915C53.5388 5.51975 53.1815 4.65719 52.5455 4.02121C51.9095 3.38524 51.047 3.02795 50.1476 3.02795Z" fill="white"/>
  <path fill-rule="evenodd" clip-rule="evenodd" d="M29.7997 3.70413C28.4434 3.70413 27.344 4.80358 27.344 6.15982V13.8471C27.344 15.2033 28.4434 16.3028 29.7997 16.3028C31.1559 16.3028 32.2554 15.2033 32.2554 13.8471V6.15982C32.2554 4.80358 31.1559 3.70413 29.7997 3.70413ZM29.7997 18.1738C27.4101 18.1738 25.473 16.2366 25.473 13.8471V6.15982C25.473 3.77026 27.4101 1.83313 29.7997 1.83313C32.1893 1.83313 34.1264 3.77026 34.1264 6.15982V13.8471C34.1264 16.2366 32.1893 18.1738 29.7997 18.1738Z" fill="#45413C"/>
  <path fill-rule="evenodd" clip-rule="evenodd" d="M36.5821 2.15372C35.2259 2.15372 34.1264 3.25317 34.1264 4.60941V13.8215C34.1264 15.1778 35.2259 16.2772 36.5821 16.2772C37.9383 16.2772 39.0378 15.1778 39.0378 13.8215V4.60941C39.0378 3.25317 37.9383 2.15372 36.5821 2.15372ZM32.2554 4.60941C32.2554 2.21984 34.1925 0.282715 36.5821 0.282715C38.9717 0.282715 40.9088 2.21984 40.9088 4.60941V13.8215C40.9088 16.2111 38.9717 18.1482 36.5821 18.1482C34.1925 18.1482 32.2554 16.2111 32.2554 13.8215V4.60941Z" fill="#45413C"/>
  <path fill-rule="evenodd" clip-rule="evenodd" d="M43.3644 1.871C42.0082 1.871 40.9088 2.97045 40.9088 4.32669V13.8216C40.9088 15.1778 42.0082 16.2772 43.3644 16.2772C44.7207 16.2772 45.8201 15.1778 45.8201 13.8216V4.32669C45.8201 2.97045 44.7207 1.871 43.3644 1.871ZM39.0378 4.32669C39.0378 1.93713 40.9749 0 43.3644 0C45.754 0 47.6911 1.93713 47.6911 4.32669V13.8216C47.6911 16.2111 45.754 18.1482 43.3644 18.1482C40.9749 18.1482 39.0378 16.2111 39.0378 13.8216V4.32669Z" fill="#45413C"/>
  <path fill-rule="evenodd" clip-rule="evenodd" d="M50.1468 3.96255C48.7906 3.96255 47.6911 5.062 47.6911 6.41824V13.3295C47.6911 14.6857 48.7906 15.7852 50.1468 15.7852C51.5031 15.7852 52.6025 14.6857 52.6025 13.3295V6.41824C52.6025 5.062 51.5031 3.96255 50.1468 3.96255ZM45.8201 6.41824C45.8201 4.02868 47.7573 2.09155 50.1468 2.09155C52.5364 2.09155 54.4735 4.02868 54.4735 6.41824V13.3295C54.4735 15.7191 52.5364 17.6562 50.1468 17.6562C47.7573 17.6562 45.8201 15.7191 45.8201 13.3295V6.41824Z" fill="#45413C"/>
  <path d="M48.7443 21.0489H42.8974C41.998 21.0489 41.1355 20.6916 40.4995 20.0556C39.8635 19.4196 39.5063 18.5571 39.5063 17.6577C39.5063 16.7583 39.8635 15.8957 40.4995 15.2597C41.1355 14.6238 41.998 14.2665 42.8974 14.2665H50.1476C51.047 14.2665 51.9095 14.6238 52.5455 15.2597C53.1815 15.8957 53.5388 16.7583 53.5388 17.6577V21.0489H48.7443Z" fill="#F1C9BD"/>
  <path d="M42.8974 18.9858C42.1784 18.9857 41.4779 18.7571 40.8973 18.3329C40.3166 17.9088 39.8859 17.311 39.6672 16.626C39.515 17.1019 39.4699 17.6056 39.535 18.101C39.6574 18.9266 40.0746 19.6798 40.7094 20.2216C41.3442 20.7633 42.1537 21.0568 42.9882 21.0479H49.6892C49.6892 20.5007 49.4718 19.976 49.0849 19.5891C48.6981 19.2022 48.1733 18.9848 47.6262 18.9848L42.8974 18.9858Z" fill="#F2B6A7"/>
  <path opacity="0.43" d="M50.1476 14.2665H42.8974C42.3674 14.2665 41.8448 14.3907 41.3714 14.6292C40.8981 14.8677 40.4873 15.2138 40.1719 15.6398C39.8565 16.0657 39.6454 16.5597 39.5554 17.082C39.4654 17.6043 39.4991 18.1405 39.6538 18.6474C39.8659 17.9525 40.2955 17.344 40.8795 16.9117C41.4635 16.4793 42.1708 16.246 42.8974 16.246H50.1476C51.047 16.246 51.9095 16.6033 52.5455 17.2393C53.1815 17.8752 53.5388 18.7378 53.5388 19.6372V17.6577C53.5388 16.7583 53.1815 15.8957 52.5455 15.2597C51.9095 14.6238 51.047 14.2665 50.1476 14.2665Z" fill="white"/>
  <path fill-rule="evenodd" clip-rule="evenodd" d="M42.8975 15.2018C42.2462 15.2018 41.6216 15.4605 41.161 15.9211C40.7005 16.3816 40.4418 17.0062 40.4418 17.6575C40.4418 18.3088 40.7005 18.9334 41.161 19.3939C41.6216 19.8545 42.2462 20.1132 42.8975 20.1132H48.7443C49.261 20.1132 49.6798 20.532 49.6798 21.0487C49.6798 21.5654 49.261 21.9842 48.7443 21.9842H42.8975C41.75 21.9842 40.6494 21.5283 39.838 20.7169C39.0266 19.9055 38.5708 18.805 38.5708 17.6575C38.5708 16.51 39.0266 15.4095 39.838 14.5981C40.6494 13.7867 41.75 13.3308 42.8975 13.3308H50.1476C51.2951 13.3308 52.3956 13.7867 53.207 14.5981C54.0184 15.4095 54.4743 16.51 54.4743 17.6575V21.0487C54.4743 21.5654 54.0555 21.9842 53.5388 21.9842C53.0221 21.9842 52.6033 21.5654 52.6033 21.0487V17.6575C52.6033 17.0062 52.3446 16.3816 51.884 15.9211C51.4235 15.4605 50.7989 15.2018 50.1476 15.2018H42.8975Z" fill="#45413C"/>
  <path fill-rule="evenodd" clip-rule="evenodd" d="M45.4605 15.4788C45.458 15.9102 45.2844 16.3229 44.9777 16.6262C44.6713 16.9292 44.2572 17.0982 43.8264 17.0962H42.1603C41.9005 17.0962 41.6899 16.8856 41.6899 16.6259C41.6899 16.3661 41.9005 16.1556 42.1603 16.1556H43.8301C44.012 16.1566 44.1869 16.0853 44.3162 15.9574C44.4456 15.8295 44.5188 15.6554 44.5198 15.4735L45.4605 15.4788Z" fill="#0A002D"/>
  <path d="M28.0464 56.9543C35.7492 59.7679 44.1988 59.7679 51.9016 56.9543V41.467H28.0464V56.9543Z" fill="#2561A1"/>
  <path d="M28.0464 56.9543C35.7492 59.7679 44.1988 59.7679 51.9016 56.9543V41.467H28.0464V56.9543Z" fill="#2561A1"/>
  <path d="M28.0464 56.9543C35.7492 59.7679 44.1988 59.7679 51.9016 56.9543V41.467H28.0464V56.9543Z" fill="#4B77A6"/>
  <path d="M28.0464 41.467V56.9543C31.8669 58.3547 35.9049 59.0691 39.974 59.0645V41.467H28.0464Z" fill="#39689F"/>
  <path d="M51.9009 41.467H28.0456V43.473H51.9009V41.467Z" fill="#A4C7E2"/>
  <path fill-rule="evenodd" clip-rule="evenodd" d="M27.1109 41.467C27.1109 40.9503 27.5297 40.5315 28.0464 40.5315H51.9017C52.4183 40.5315 52.8372 40.9503 52.8372 41.467V56.0327L52.8372 56.0342C52.8364 56.5032 52.6884 56.9602 52.414 57.3406C52.1396 57.721 51.7527 58.0057 51.3078 58.1544C43.9522 60.6152 35.9955 60.6152 28.6399 58.1544C28.195 58.0057 27.8081 57.721 27.5338 57.3405C27.2594 56.9601 27.1115 56.503 27.1109 56.034L27.1109 41.467ZM28.9819 42.4025V56.0319C28.9821 56.1089 29.0064 56.1838 29.0514 56.2462C29.0964 56.3087 29.16 56.3555 29.2331 56.3799C36.2036 58.7119 43.744 58.712 50.7145 56.38L50.7147 56.3799C50.7879 56.3554 50.8515 56.3086 50.8966 56.2461C50.9416 56.1838 50.9659 56.1089 50.9662 56.032C50.9662 56.0318 50.9662 56.0316 50.9662 56.0313L50.9662 42.4025H28.9819Z" fill="#45413C"/>
  <path d="M24.5749 43.2623C24.4854 43.2623 24.3995 43.2267 24.3361 43.1634C24.2728 43.1 24.2372 43.0141 24.2372 42.9246C24.2383 42.8659 24.2177 42.8088 24.1792 42.7645C24.1407 42.7202 24.0871 42.6917 24.0288 42.6846C23.9972 42.6818 23.9653 42.6856 23.9351 42.6958C23.905 42.7059 23.8773 42.7223 23.8539 42.7437C23.8304 42.7652 23.8117 42.7913 23.7988 42.8203C23.786 42.8494 23.7793 42.8809 23.7793 42.9126V42.9246C23.7793 42.9689 23.7706 43.0128 23.7537 43.0538C23.7367 43.0948 23.7119 43.132 23.6805 43.1634C23.6492 43.1947 23.612 43.2196 23.571 43.2366C23.5301 43.2536 23.4861 43.2623 23.4418 43.2623C23.3831 43.2611 23.326 43.2817 23.2817 43.3202C23.2373 43.3587 23.2089 43.4124 23.2019 43.4707C23.199 43.5023 23.2028 43.5343 23.2129 43.5644C23.2231 43.5945 23.2394 43.6222 23.2609 43.6457C23.2823 43.6692 23.3084 43.6879 23.3375 43.7008C23.3666 43.7136 23.3981 43.7202 23.4299 43.7202H23.4418C23.4861 43.7202 23.5301 43.729 23.571 43.7459C23.612 43.7629 23.6492 43.7878 23.6805 43.8191C23.7119 43.8505 23.7367 43.8877 23.7537 43.9287C23.7706 43.9697 23.7793 44.0136 23.7793 44.0579C23.7782 44.1167 23.7989 44.1737 23.8374 44.2181C23.876 44.2624 23.9296 44.2908 23.9879 44.2979C24.0196 44.3007 24.0515 44.2969 24.0816 44.2867C24.1117 44.2766 24.1393 44.2602 24.1628 44.2388C24.1862 44.2173 24.205 44.1912 24.2178 44.1622C24.2306 44.1331 24.2372 44.1016 24.2372 44.0699V44.0579C24.2372 44.0136 24.246 43.9697 24.2629 43.9287C24.2799 43.8877 24.3048 43.8505 24.3361 43.8191C24.3675 43.7878 24.4047 43.7629 24.4457 43.7459C24.4867 43.729 24.5306 43.7202 24.5749 43.7202H24.5869C24.6187 43.7202 24.6501 43.7135 24.6792 43.7007C24.7083 43.6878 24.7344 43.6691 24.7558 43.6456C24.7772 43.6222 24.7936 43.5945 24.8037 43.5644C24.8139 43.5342 24.8177 43.5023 24.8149 43.4707C24.8078 43.4124 24.7793 43.3588 24.735 43.3203C24.6907 43.2818 24.6336 43.2612 24.5749 43.2623Z" fill="white"/>
  <path d="M67.6181 31.4263C67.5507 31.4263 67.4861 31.3995 67.4384 31.3519C67.3907 31.3043 67.3639 31.2397 67.3639 31.1723C67.3647 31.1281 67.3491 31.0852 67.3201 31.0518C67.2911 31.0184 67.2508 30.997 67.2069 30.9917C67.1831 30.9897 67.1592 30.9926 67.1366 31.0003C67.114 31.008 67.0932 31.0203 67.0757 31.0364C67.0581 31.0526 67.044 31.0722 67.0344 31.094C67.0248 31.1159 67.0198 31.1395 67.0198 31.1634V31.1725C67.0198 31.2399 66.9929 31.3045 66.9453 31.3521C66.8976 31.3997 66.833 31.4265 66.7656 31.4265C66.7214 31.4256 66.6785 31.4412 66.6451 31.4702C66.6118 31.4992 66.5904 31.5396 66.585 31.5834C66.583 31.6072 66.5859 31.6312 66.5936 31.6537C66.6013 31.6763 66.6136 31.6971 66.6298 31.7147C66.6459 31.7323 66.6655 31.7463 66.6874 31.7559C66.7092 31.7655 66.7328 31.7705 66.7567 31.7705H66.7656C66.833 31.7705 66.8976 31.7973 66.9453 31.8449C66.9929 31.8925 67.0198 31.9571 67.0198 32.0245C67.0189 32.0687 67.0344 32.1116 67.0634 32.145C67.0924 32.1783 67.1327 32.1997 67.1765 32.2051C67.2003 32.2071 67.2242 32.2042 67.2468 32.1965C67.2694 32.1888 67.2902 32.1765 67.3078 32.1603C67.3254 32.1442 67.3394 32.1246 67.349 32.1027C67.3586 32.0809 67.3636 32.0573 67.3636 32.0334V32.0245C67.3639 31.9572 67.3908 31.8928 67.4385 31.8453C67.4862 31.7978 67.5508 31.7712 67.6181 31.7712H67.627C67.6508 31.7712 67.6744 31.7662 67.6963 31.7566C67.7181 31.747 67.7378 31.733 67.7539 31.7154C67.77 31.6978 67.7823 31.6771 67.79 31.6545C67.7977 31.6319 67.8007 31.6079 67.7986 31.5841C67.7935 31.5401 67.7722 31.4995 67.7388 31.4703C67.7054 31.4412 67.6624 31.4254 67.6181 31.4263Z" fill="white"/>
  <g style="mix-blend-mode:overlay" opacity="0.59">
    <g style="mix-blend-mode:overlay">
      <path d="M26.3241 29.7275C26.2694 29.7275 26.2153 29.7168 26.1648 29.6959C26.1143 29.675 26.0684 29.6444 26.0297 29.6057C25.9911 29.5671 25.9604 29.5212 25.9395 29.4707C25.9185 29.4202 25.9078 29.3661 25.9078 29.3114C25.9094 29.2393 25.8844 29.169 25.8375 29.1141C25.7907 29.0591 25.7253 29.0233 25.6538 29.0135C25.6144 29.0094 25.5747 29.0136 25.537 29.0258C25.4994 29.0381 25.4647 29.058 25.4353 29.0845C25.4059 29.1109 25.3823 29.1432 25.3661 29.1793C25.3499 29.2155 25.3415 29.2546 25.3413 29.2941V29.3105C25.3414 29.3651 25.3306 29.4193 25.3097 29.4698C25.2888 29.5202 25.2582 29.5661 25.2195 29.6048C25.1809 29.6434 25.135 29.6741 25.0845 29.695C25.034 29.7159 24.9799 29.7266 24.9253 29.7266C24.8531 29.725 24.7829 29.75 24.728 29.7969C24.673 29.8437 24.6372 29.9091 24.6273 29.9806C24.6233 30.02 24.6275 30.0599 24.6398 30.0976C24.6521 30.1353 24.6722 30.17 24.6988 30.1994C24.7254 30.2289 24.7578 30.2524 24.794 30.2685C24.8303 30.2846 24.8695 30.293 24.9091 30.293H24.9253C24.9799 30.293 25.034 30.3038 25.0845 30.3247C25.135 30.3456 25.1809 30.3763 25.2196 30.415C25.2582 30.4536 25.2888 30.4995 25.3097 30.55C25.3306 30.6005 25.3414 30.6546 25.3413 30.7093C25.3398 30.7814 25.3648 30.8516 25.4116 30.9065C25.4585 30.9614 25.5238 30.9972 25.5953 31.007C25.6347 31.0111 25.6745 31.0069 25.7121 30.9947C25.7497 30.9824 25.7844 30.9625 25.8138 30.936C25.8433 30.9096 25.8668 30.8773 25.883 30.8412C25.8992 30.805 25.9076 30.7659 25.9078 30.7264V30.7116C25.9078 30.6009 25.9518 30.4946 26.0301 30.4163C26.1085 30.338 26.2147 30.2939 26.3255 30.2939H26.3402C26.3798 30.2938 26.4189 30.2854 26.455 30.2692C26.4911 30.253 26.5234 30.2294 26.5499 30.2C26.5763 30.1705 26.5963 30.1359 26.6085 30.0983C26.6207 30.0606 26.625 30.0208 26.6209 29.9815C26.611 29.9102 26.5754 29.8449 26.5207 29.7981C26.466 29.7513 26.3961 29.7262 26.3241 29.7275Z" fill="#174268"/>
    </g>
  </g>
  <g style="mix-blend-mode:overlay" opacity="0.59">
    <g style="mix-blend-mode:overlay">
      <path d="M66.9248 40.7448C66.8144 40.7448 66.7085 40.7009 66.6304 40.6229C66.5524 40.5448 66.5085 40.4389 66.5085 40.3285C66.5101 40.2564 66.4851 40.1861 66.4383 40.1312C66.3916 40.0763 66.3262 40.0404 66.2547 40.0305C66.2154 40.0265 66.1756 40.0307 66.138 40.043C66.1004 40.0552 66.0658 40.0752 66.0363 40.1016C66.0069 40.1281 65.9833 40.1604 65.9671 40.1965C65.9509 40.2326 65.9425 40.2716 65.9423 40.3112V40.3273C65.9423 40.4377 65.8984 40.5436 65.8203 40.6217C65.7423 40.6998 65.6364 40.7436 65.526 40.7436C65.4539 40.742 65.3837 40.767 65.3288 40.8138C65.2739 40.8606 65.2381 40.9259 65.2283 40.9974C65.2242 41.0367 65.2284 41.0765 65.2406 41.1142C65.2528 41.1518 65.2728 41.1864 65.2993 41.2159C65.3257 41.2453 65.358 41.2689 65.3941 41.2851C65.4302 41.3013 65.4693 41.3097 65.5089 41.3098H65.525C65.6355 41.3098 65.7413 41.3537 65.8194 41.4318C65.8975 41.5098 65.9413 41.6157 65.9413 41.7261C65.9398 41.7983 65.9648 41.8685 66.0116 41.9234C66.0584 41.9783 66.1238 42.0141 66.1953 42.0239C66.2347 42.0279 66.2744 42.0237 66.3121 42.0115C66.3497 41.9993 66.3843 41.9793 66.4137 41.9528C66.4432 41.9264 66.4667 41.8941 66.4829 41.858C66.499 41.8219 66.5074 41.7828 66.5076 41.7432V41.7285C66.5076 41.6177 66.5516 41.5115 66.6299 41.4331C66.7082 41.3548 66.8145 41.3108 66.9253 41.3108H66.94C66.9796 41.3108 67.0189 41.3024 67.0551 41.2863C67.0913 41.2702 67.1238 41.2466 67.1503 41.2172C67.1769 41.1877 67.197 41.153 67.2093 41.1153C67.2216 41.0776 67.2259 41.0378 67.2218 40.9983C67.2118 40.9271 67.1761 40.8619 67.1214 40.8152C67.0667 40.7685 66.9967 40.7435 66.9248 40.7448Z" fill="#174268"/>
    </g>
  </g>
  <g style="mix-blend-mode:overlay" opacity="0.59">
    <g style="mix-blend-mode:overlay">
      <path d="M13.4462 35.9747C13.2742 35.9747 13.1092 35.9064 12.9876 35.7848C12.866 35.6632 12.7977 35.4982 12.7977 35.3262C12.8001 35.2138 12.7611 35.1043 12.6882 35.0188C12.6152 34.9332 12.5134 34.8774 12.4019 34.862C12.3405 34.8556 12.2784 34.8622 12.2197 34.8814C12.1609 34.9006 12.1069 34.9318 12.061 34.9732C12.0151 35.0146 11.9784 35.0652 11.9533 35.1216C11.9282 35.1781 11.9153 35.2392 11.9153 35.3009V35.3262C11.9152 35.4982 11.8468 35.6631 11.7252 35.7847C11.6036 35.9063 11.4387 35.9747 11.2667 35.9747C11.1543 35.9724 11.0449 36.0113 10.9593 36.0843C10.8737 36.1572 10.8179 36.2591 10.8025 36.3704C10.7961 36.4319 10.8027 36.494 10.8219 36.5527C10.8411 36.6115 10.8724 36.6655 10.9137 36.7114C10.9551 36.7573 11.0057 36.794 11.0621 36.8191C11.1186 36.8442 11.1797 36.8571 11.2415 36.8571H11.2667C11.4387 36.8572 11.6036 36.9256 11.7252 37.0472C11.8468 37.1688 11.9152 37.3337 11.9153 37.5057C11.9129 37.6181 11.9519 37.7275 12.0248 37.8131C12.0978 37.8987 12.1996 37.9545 12.311 37.9699C12.3724 37.9763 12.4345 37.9697 12.4933 37.9505C12.552 37.9313 12.6061 37.9 12.6519 37.8586C12.6978 37.8173 12.7345 37.7667 12.7596 37.7103C12.7847 37.6538 12.7977 37.5927 12.7977 37.5309V37.5076C12.7977 37.3349 12.8662 37.1694 12.9883 37.0473C13.1104 36.9253 13.2759 36.8567 13.4485 36.8567H13.4719C13.5337 36.8567 13.5948 36.8437 13.6512 36.8186C13.7077 36.7935 13.7582 36.7568 13.7996 36.7109C13.8409 36.665 13.8722 36.611 13.8913 36.5523C13.9105 36.4935 13.9171 36.4314 13.9107 36.37C13.8952 36.2586 13.8394 36.1568 13.7537 36.0839C13.6681 36.011 13.5586 35.9722 13.4462 35.9747Z" fill="#174268"/>
    </g>
  </g>
</svg>