<svg xmlns="http://www.w3.org/2000/svg" width="22" height="22" viewBox="0 0 22 22" fill="none">
  <path fill-rule="evenodd" clip-rule="evenodd" d="M21.6782 0.321761C21.97 0.613537 22.0737 1.04436 21.9465 1.43692L15.5334 21.24C15.404 21.6399 15.0575 21.931 14.6409 21.9893C14.2248 22.0477 13.8114 21.8635 13.5768 21.5146L8.31283 13.6873L0.485594 8.42329C0.136689 8.18864 -0.0476941 7.77552 0.0106618 7.35917C0.0692619 6.94283 0.360056 6.59639 0.760181 6.46665L20.5624 0.0535159C20.955 -0.0737362 21.3857 0.0299779 21.6776 0.321754L21.6782 0.321761ZM10.5205 13.0332L14.1392 18.4142L18.4497 5.10396L10.5205 13.0332ZM16.8965 3.55061L8.96698 11.4796L3.58627 7.86085L16.8965 3.55061Z" fill="white"/>
</svg>