<svg xmlns="http://www.w3.org/2000/svg" width="27" height="27" viewBox="0 0 27 27" fill="none">
  <path d="M21.4497 4.8737C21.2687 4.70621 20.9954 4.57648 20.7489 4.56899L12.7045 4.32518C12.2027 4.35188 11.5979 4.76082 11.5772 5.33077C11.5568 5.89222 12.0898 6.40795 12.6511 6.38974L18.3034 6.55742L4.87391 19.9869C4.47008 20.3908 4.47006 21.0457 4.87391 21.4496C5.27775 21.8534 5.93272 21.8534 6.33656 21.4496L19.7661 8.02007L19.9338 13.6724C19.9341 14.1719 20.4311 14.7611 20.9927 14.7463C21.5544 14.7319 21.9919 14.1196 21.9981 13.6188L21.7543 5.57448C21.746 5.29919 21.6445 5.06777 21.4496 4.87358L21.4497 4.8737Z" fill="black"/>
</svg>