<svg xmlns="http://www.w3.org/2000/svg" width="27" height="27" viewBox="0 0 27 27" fill="none">
  <path d="M21.4497 4.87388C21.2687 4.7064 20.9954 4.57666 20.7489 4.56917L12.7045 4.32537C12.2027 4.35206 11.5979 4.761 11.5772 5.33095C11.5568 5.8924 12.0898 6.40813 12.6511 6.38993L18.3034 6.5576L4.87391 19.9871C4.47008 20.3909 4.47006 21.0459 4.87391 21.4498C5.27775 21.8536 5.93272 21.8536 6.33656 21.4498L19.7661 8.02026L19.9338 13.6726C19.9341 14.1721 20.4311 14.7613 20.9927 14.7465C21.5544 14.732 21.9919 14.1197 21.9981 13.619L21.7543 5.57466C21.746 5.29937 21.6445 5.06795 21.4496 4.87376L21.4497 4.87388Z" fill="#9B51E0"/>
</svg>